<?xml version="1.0" encoding="utf-8"?>
<!-- Generator: Adobe Illustrator 16.0.0, SVG Export Plug-In . SVG Version: 6.00 Build 0)  -->
<!DOCTYPE svg PUBLIC "-//W3C//DTD SVG 1.1//EN" "http://www.w3.org/Graphics/SVG/1.1/DTD/svg11.dtd">
<svg version="1.1" id="Layer_1" xmlns="http://www.w3.org/2000/svg" xmlns:xlink="http://www.w3.org/1999/xlink" x="0px" y="0px"
	 width="512px" height="512px" viewBox="0 0 512 512" enable-background="new 0 0 512 512" xml:space="preserve">
<g>
	<path fill="#FFFFFF" d="M238.937,71.525c94.397,0,170.922,76.524,170.922,170.922c0,94.397-76.524,170.922-170.922,170.922"/>
	<g>
		<path fill="#FFFFFF" d="M238.937,91.525c5.582,0.022,11.145,0.289,16.704,0.806c1.372,0.127,2.74,0.288,4.107,0.449
			c4.813,0.564-4.666-0.684,0.113,0.033c3.14,0.471,6.26,1.067,9.367,1.712c5.272,1.095,10.476,2.503,15.618,4.095
			c2.551,0.789,5.072,1.668,7.582,2.577c1.25,0.453,2.49,0.935,3.729,1.417c0.823,0.324,1.645,0.654,2.463,0.991
			c-2.736-1.167-3.109-1.321-1.118-0.46c10.061,4.371,19.63,9.829,28.661,16.044c2.156,1.484,4.261,3.042,6.347,4.623
			c-4.812-3.646,1.941,1.663,3.072,2.619c4.322,3.654,8.419,7.568,12.358,11.63c3.639,3.751,7.062,7.707,10.343,11.773
			c2.899,3.592-2.71-3.596,0.08,0.084c0.79,1.043,1.557,2.104,2.323,3.165c1.79,2.479,3.485,5.024,5.141,7.595
			c2.848,4.422,5.438,9.004,7.865,13.669c1.219,2.342,2.355,4.727,3.464,7.123c0.556,1.201,1.084,2.416,1.611,3.629
			c-2.385-5.487,0.047,0.243,0.484,1.368c4.062,10.448,6.955,21.329,8.882,32.364c0.235,1.346,0.438,2.696,0.64,4.047
			c-0.871-5.81-0.146-1.038-0.009,0.127c0.322,2.747,0.545,5.503,0.733,8.262c0.416,6.054,0.439,12.131,0.219,18.193
			c-0.184,5.071-0.652,10.129-1.283,15.163c0.788-6.283-0.5,2.598-0.779,4.125c-0.487,2.665-1.07,5.312-1.685,7.951
			c-1.217,5.229-2.744,10.382-4.451,15.47c-0.847,2.525-1.783,5.02-2.748,7.501c-0.408,1.048-2.229,5.361-0.003,0.13
			c-0.519,1.218-1.064,2.424-1.611,3.629c-4.344,9.586-9.684,18.702-15.711,27.319c-0.848,1.212-6.07,8.051-2.349,3.293
			c-1.61,2.059-3.291,4.062-4.993,6.045c-3.403,3.964-7.03,7.73-10.779,11.367c-3.438,3.336-7.052,6.486-10.756,9.522
			c-0.857,0.703-4.501,3.53-0.059,0.11c-1.037,0.798-2.092,1.572-3.146,2.347c-2.111,1.55-4.275,3.027-6.456,4.479
			c-4.374,2.912-8.913,5.571-13.535,8.068c-2.321,1.253-4.685,2.426-7.061,3.569c-1.351,0.65-9.344,4.094-3.691,1.742
			c-9.901,4.12-20.227,7.175-30.72,9.354c-2.666,0.555-5.351,1.012-8.04,1.438c-4.773,0.755,4.695-0.57-0.113,0.033
			c-1.366,0.171-2.737,0.31-4.107,0.448c-5.549,0.561-11.128,0.783-16.704,0.806c-10.902,0.044-20,9.064-20,20
			c0,10.869,9.097,20.044,20,20c49.022-0.197,96.061-19.168,131.728-52.731c35.468-33.376,55.991-80.042,58.918-128.396
			c2.977-49.155-14.784-97.397-46.344-134.725c-31.446-37.195-76.932-59.277-124.856-64.899c-6.453-0.757-12.951-1.067-19.445-1.094
			c-10.903-0.044-20,9.131-20,20C218.937,82.46,228.035,91.481,238.937,91.525L238.937,91.525z"/>
	</g>
</g>
<g>
	<path fill="#FFFFFF" d="M168,84v322.276c-58-15.743-104.679-55.354-120.511-113.869"/>
	<g>
		<path fill="#FFFFFF" d="M148.443,83.582c0,39.789,0,79.577,0,119.366c0,59.022,0,118.046,0,177.068c0,8.754,0,17.507,0,26.261
			c8.439-6.429,16.878-12.857,25.317-19.285c-6.95-1.896-13.785-4.119-20.511-6.699c-1.327-0.509-2.642-1.046-3.957-1.584
			c5.287,2.162-0.688-0.344-1.702-0.804c-3.405-1.542-6.746-3.225-10.05-4.971c-6.12-3.234-12.012-6.888-17.705-10.82
			c-1.13-0.78-2.24-1.588-3.35-2.396c-0.737-0.54-1.469-1.087-2.196-1.639c2.237,1.741,2.507,1.942,0.811,0.605
			c-2.851-2.258-5.596-4.646-8.288-7.09c-5.034-4.57-9.711-9.522-14.108-14.704c-0.88-1.037-1.732-2.098-2.585-3.158
			c-1.334-1.696-1.126-1.423,0.625,0.818c-0.547-0.726-1.088-1.457-1.622-2.192c-2.157-2.942-4.167-5.991-6.104-9.081
			c-3.682-5.87-6.875-12.036-9.72-18.351c-0.875-2.011-0.757-1.709,0.355,0.904c-0.359-0.87-0.71-1.743-1.053-2.619
			c-0.698-1.76-1.34-3.542-1.974-5.327c-1.286-3.619-2.388-7.301-3.407-11.003c-2.893-10.505-14.094-16.859-24.603-13.969
			c-10.503,2.889-16.862,14.097-13.969,24.602c8.548,31.037,25.4,59.382,48.88,81.441c23.972,22.521,53.991,37.988,85.599,46.605
			c12.549,3.422,25.317-6.258,25.317-19.285c0-39.788,0-79.577,0-119.365c0-59.023,0-118.046,0-177.069c0-8.753,0-17.507,0-26.261
			c0-10.902-9.098-20-20-20S148.443,72.679,148.443,83.582L148.443,83.582z"/>
	</g>
</g>
</svg>
