<?xml version="1.0" encoding="UTF-8" standalone="no"?>
<svg width="53px" height="44px" viewBox="0 0 53 44" version="1.1" xmlns="http://www.w3.org/2000/svg" xmlns:xlink="http://www.w3.org/1999/xlink" xmlns:sketch="http://www.bohemiancoding.com/sketch/ns">
    <!-- Generator: Sketch 3.3.2 (12043) - http://www.bohemiancoding.com/sketch -->
    <title>Group + Group</title>
    <desc>Created with Sketch.</desc>
    <defs></defs>
    <g id="Welcome" stroke="none" stroke-width="1" fill="none" fill-rule="evenodd" sketch:type="MSPage">
        <g id="Desktop" sketch:type="MSArtboardGroup" transform="translate(-146.000000, -81.000000)">
            <g id="Group-Copy" sketch:type="MSLayerGroup" transform="translate(-1.000000, 0.000000)">
                <g id="Oval-4-+-jd-logo" transform="translate(138.445820, 70.000000)" sketch:type="MSShapeGroup">
                    <g id="jd-logo" transform="translate(8.619195, 11.000000)">
                        <g id="Group-+-Group">
                            <g id="Group">
                                <g transform="translate(24.856183, 0.000000)">
                                    <path d="M2.72468018,2.35012421 C15.0092307,2.35012421 24.9679712,11.1121659 24.9679712,21.9207907 C24.9679712,32.7293011 15.0093608,41.4914572 2.72468018,41.4914572" id="Shape"></path>
                                    <path d="M2.72468018,4.64013562 C3.45110539,4.64265463 4.175058,4.67322628 4.89849006,4.73242308 C5.07703815,4.74696465 5.25506568,4.76539924 5.43296308,4.78383384 C6.05931287,4.84841216 4.82574343,4.70551545 5.44766857,4.78761235 C5.85629902,4.84154212 6.26232673,4.90978446 6.66666266,4.98363733 C7.35274537,5.10901546 8.02997877,5.27023226 8.69914367,5.45251717 C9.03112338,5.54285812 9.35919897,5.64350412 9.68584306,5.74758514 C9.84851441,5.7994539 10.0098844,5.85464317 10.1711243,5.90983245 C10.2782271,5.94693063 10.3851998,5.98471582 10.4916519,6.02330251 C10.1355968,5.88968035 10.0870557,5.87204726 10.3461586,5.97063225 C11.6554679,6.47111424 12.9007496,7.09605836 14.0760177,7.8076794 C14.3565932,7.97759825 14.6305318,8.15599014 14.9019977,8.33701554 C14.2757781,7.91954646 15.1545938,8.52742999 15.3017789,8.63689253 C15.8642314,9.05527762 16.397403,9.50343285 16.910013,9.96853417 C17.3835818,10.3980258 17.8290411,10.8509901 18.2560209,11.3165494 C18.6332883,11.7278354 17.9033494,10.9048053 18.2664318,11.3261674 C18.3692401,11.4455915 18.4690553,11.5670766 18.5687403,11.6885617 C18.8016857,11.9724087 19.022268,12.2638126 19.2377751,12.5581936 C19.6084055,13.0645151 19.9454605,13.5891567 20.2613032,14.1233019 C20.4199403,14.3914622 20.5677761,14.6645461 20.7120981,14.9388894 C20.7844543,15.0764046 20.8531667,15.2155228 20.9217489,15.354412 C20.611372,14.7261474 20.9278654,15.3822356 20.9847353,15.5110488 C21.5133521,16.7073507 21.8898387,17.9532315 22.1406129,19.2167452 C22.1711951,19.370863 22.1976129,19.5254388 22.2239006,19.6801291 C22.1105512,19.0148807 22.2049006,19.5612775 22.2227294,19.6946706 C22.2646335,20.0092037 22.2936541,20.3247673 22.3181199,20.6406743 C22.3722569,21.3338608 22.3752501,22.0296808 22.3466199,22.7237832 C22.3226747,23.3044156 22.2617705,23.8835595 22.179654,24.4599554 C22.282202,23.7405483 22.1145855,24.7574279 22.0782772,24.9322702 C22.0149005,25.2374142 21.9390306,25.5404973 21.8589962,25.8426643 C21.7006194,26.4413877 21.5019001,27.0314092 21.2797561,27.6139881 C21.16953,27.903102 21.0477216,28.1887809 20.9221394,28.4728569 C20.8690434,28.5928535 20.6320638,29.0866944 20.9217489,28.4877419 C20.8542078,28.6272036 20.7832831,28.7652913 20.7120981,28.9032645 C20.1467826,30.000867 19.4518506,31.0446542 18.6675143,32.0313056 C18.5571581,32.1700803 17.8775822,32.9531497 18.3618223,32.408356 C18.1523016,32.6441126 17.9335412,32.8734573 17.7120479,33.1005119 C17.2691913,33.5543922 16.7971841,33.9856013 16.3093002,34.4020399 C15.8618889,34.7840138 15.3915735,35.1446906 14.9095457,35.4923143 C14.7980182,35.5728082 14.3237987,35.8965014 14.9018676,35.5049094 C14.7669155,35.5962809 14.6296208,35.6849043 14.4924563,35.7736422 C14.2177369,35.9511181 13.9361203,36.1202355 13.6522913,36.2864903 C13.0830717,36.619916 12.4923795,36.924373 11.8908858,37.2102809 C11.5888377,37.3537501 11.2811936,37.4880593 10.9719879,37.6189334 C10.7961727,37.6933588 9.75598695,38.0876988 10.4916519,37.8183934 C9.2031646,38.2901358 7.85936905,38.639935 6.4938406,38.8894318 C6.14689513,38.9529796 5.79747706,39.0053063 5.44753843,39.0540836 C4.82639412,39.1405315 6.05853205,38.9888183 5.43283294,39.0578621 C5.25506568,39.0774417 5.07664774,39.0933573 4.89835993,39.1091584 C4.17622924,39.1733932 3.45019443,39.1988123 2.72455004,39.2014458 C1.30579552,39.2064838 0.121808313,40.239279 0.121808313,41.4914572 C0.121808313,42.7359639 1.30566539,43.7865067 2.72455004,43.7814686 C9.10413028,43.758912 15.2256487,41.5867217 19.8672481,37.7437391 C24.4829503,33.922168 27.1537537,28.5788844 27.534665,23.0423238 C27.9220831,17.4140483 25.6107183,11.8903117 21.5035919,7.61623445 C17.411301,3.35738573 11.4918855,0.82898413 5.25519582,0.185261923 C4.4154212,0.0985849912 3.56979041,0.0630898143 2.72468018,0.0599982989 C1.30579552,0.0549602738 0.12193845,1.10550301 0.12193845,2.35000971 C0.12193845,3.60218795 1.30592566,4.63509759 2.72468018,4.64013562 L2.72468018,4.64013562 L2.72468018,4.64013562 Z" id="Shape" fill="#FFFFFF"></path>
                                </g>
                                <g transform="translate(0.000000, 1.374007)">
                                    <path d="M18.3493292,2.40451198 L18.3493292,39.3052978 C10.8013782,37.5027154 4.72670911,32.9672333 2.66637876,26.2672324" id="Shape"></path>
                                    <path d="M15.8042382,2.35665074 L15.8042382,16.0241258 L15.8042382,36.2985129 L15.8042382,39.3054123 C16.902465,38.5692882 18.0006919,37.8332785 19.0989188,37.0972688 C18.194466,36.8801758 17.304979,36.625641 16.429677,36.3302295 C16.2569851,36.2719487 16.0858548,36.2104619 15.9147246,36.1488606 C16.6027593,36.3964108 15.8251902,36.1094724 15.6932312,36.0568022 C15.2501145,35.8802423 14.8153264,35.6875378 14.3853535,35.4876198 C13.5889145,35.117325 12.8221468,34.6989399 12.0812764,34.2487236 C11.9342215,34.1594132 11.7897693,34.0668967 11.6453172,33.9743803 C11.5494061,33.91255 11.4541458,33.8499182 11.3595361,33.7867138 C11.6506528,33.9860593 11.6857898,34.0090739 11.4650773,33.8559867 C11.0940565,33.5974444 10.7368302,33.324017 10.3865011,33.0441776 C9.73139104,32.52091 9.12273988,31.9539032 8.55052712,31.3605613 C8.43600648,31.2418242 8.32512968,31.1203391 8.21412275,30.9989685 C8.04051987,30.8047755 8.06758839,30.8360341 8.29545843,31.0926299 C8.22427344,31.0095025 8.15386928,30.9258026 8.08437607,30.8416447 C7.80367038,30.504784 7.54209483,30.1556717 7.2900193,29.801865 C6.81085455,29.1297466 6.39532683,28.4237361 6.02508682,27.700665 C5.91121687,27.4704044 5.92657305,27.5049835 6.07128549,27.8041735 C6.02456627,27.704558 5.97888815,27.604599 5.93425113,27.5042965 C5.84341545,27.3027755 5.75986744,27.0987355 5.67736053,26.894352 C5.51000423,26.4799744 5.36659316,26.0583833 5.23398347,25.6345022 C4.85749688,24.4316737 3.39983138,23.7041371 2.03222074,24.0350438 C0.665390922,24.3658359 -0.162150809,25.6491583 0.214335781,26.8519868 C1.32674759,30.405741 3.51981777,33.6512597 6.57543656,36.1770278 C9.69508279,38.7556951 13.601668,40.5266754 17.715041,41.5133268 C19.3481313,41.9051478 21.0097216,40.7967823 21.0097216,39.3051833 L21.0097216,25.6378227 L21.0097216,5.36332122 L21.0097216,2.35642174 C21.0097216,1.10813652 19.8257344,0.0664103309 18.4069799,0.0664103309 C16.9882254,0.0664103309 15.8042382,1.10825102 15.8042382,2.35665074 L15.8042382,2.35665074 L15.8042382,2.35665074 Z" id="Shape" fill="#FFFFFF"></path>
                                </g>
                            </g>
                        </g>
                    </g>
                </g>
            </g>
        </g>
    </g>
</svg>