<?xml version="1.0" encoding="UTF-8" standalone="no"?>
<svg width="24px" height="23px" viewBox="0 0 24 23" version="1.1" xmlns="http://www.w3.org/2000/svg" xmlns:xlink="http://www.w3.org/1999/xlink" xmlns:sketch="http://www.bohemiancoding.com/sketch/ns">
    <!-- Generator: Sketch 3.3.2 (12043) - http://www.bohemiancoding.com/sketch -->
    <title>facebook</title>
    <desc>Created with Sketch.</desc>
    <defs></defs>
    <g id="Welcome" stroke="none" stroke-width="1" fill="none" fill-rule="evenodd" sketch:type="MSPage">
        <g id="Mobile-Portrait" sketch:type="MSArtboardGroup" transform="translate(-115.000000, -293.000000)" fill="#FFFFFF">
            <g id="Group" sketch:type="MSLayerGroup" transform="translate(83.000000, 292.000000)">
                <path d="M44,1 C45.5572995,1 47.0453217,1.30321962 48.4641113,1.90966797 C49.882901,2.51611631 51.1070098,3.33406061 52.1364746,4.36352539 C53.1659394,5.39299017 53.9838837,6.61709903 54.590332,8.03588867 C55.1967804,9.45467832 55.5,10.9427005 55.5,12.5 C55.5,14.2519619 55.1275265,15.904696 54.3825684,17.458252 C53.6376102,19.0118079 52.6119043,20.3238879 51.3054199,21.3945312 C49.9989355,22.4651746 48.5221437,23.2138651 46.875,23.640625 L46.875,14.8920898 L49.3344727,14.8920898 L49.75,12.0170898 L46.875,12.0170898 L46.875,9.49023438 C46.875,8.62174045 47.2942666,8.1875 48.1328125,8.1875 L49.9633789,8.1875 L49.9633789,5.51464844 C49.3943656,5.38736916 48.7055704,5.32373047 47.8969727,5.32373047 C46.5493097,5.32373047 45.5198603,5.66625634 44.8085938,6.35131836 C44.0973272,7.03638038 43.7416992,7.96662824 43.7416992,9.14208984 L43.7416992,12.0170898 L41.125,12.0170898 L41.125,14.8920898 L43.7416992,14.8920898 L43.7416992,24 C42.2068608,23.9700519 40.7469145,23.6443716 39.3618164,23.0229492 C37.9767183,22.4015268 36.7825571,21.5798391 35.7792969,20.5578613 C34.7760367,19.5358836 33.9786813,18.3230051 33.387207,16.9191895 C32.7957327,15.5153738 32.5,14.0423254 32.5,12.5 C32.5,10.9427005 32.8032196,9.45467832 33.409668,8.03588867 C34.0161163,6.61709903 34.8340606,5.39299017 35.8635254,4.36352539 C36.8929902,3.33406061 38.117099,2.51611631 39.5358887,1.90966797 C40.9546783,1.30321962 42.4427005,1 44,1 L44,1 Z" id="facebook" sketch:type="MSShapeGroup"></path>
            </g>
        </g>
    </g>
</svg>