<?xml version="1.0" encoding="UTF-8" standalone="no"?>
<svg width="23px" height="23px" viewBox="0 0 23 23" version="1.1" xmlns="http://www.w3.org/2000/svg" xmlns:xlink="http://www.w3.org/1999/xlink" xmlns:sketch="http://www.bohemiancoding.com/sketch/ns">
    <!-- Generator: Sketch 3.3.2 (12043) - http://www.bohemiancoding.com/sketch -->
    <title></title>
    <desc>Created with Sketch.</desc>
    <defs></defs>
    <g id="Welcome" stroke="none" stroke-width="1" fill="none" fill-rule="evenodd" sketch:type="MSPage">
        <g id="Mobile-Portrait" sketch:type="MSArtboardGroup" transform="translate(-83.000000, -292.000000)" fill="#FFFFFF">
            <g id="Group" sketch:type="MSLayerGroup" transform="translate(83.000000, 292.000000)">
                <path d="M11.5,0.3125 C8.23566076,0.387370166 5.52165795,1.50666236 3.35791016,3.67041016 C1.19416236,5.83415795 0.074870166,8.54816076 0,11.8125 C0.0449220996,14.3880337 0.786125625,16.6490788 2.22363281,18.5957031 C3.66114,20.5423274 5.54035298,21.9199178 7.86132812,22.7285156 C8.14583476,22.7734377 8.34798117,22.7322598 8.46777344,22.6049805 C8.5875657,22.4777012 8.64746094,22.3317066 8.64746094,22.1669922 L8.625,20.0332031 C7.21744088,20.2428396 6.24414332,20.1604836 5.70507812,19.7861328 C5.16601293,19.411782 4.85156295,19.0374368 4.76171875,18.6630859 C4.68684858,18.4684235 4.5371105,18.191408 4.3125,17.8320312 C4.0878895,17.4726545 3.84830856,17.2106128 3.59375,17.0458984 C3.35416547,16.9261062 3.17822322,16.7763681 3.06591797,16.5966797 C2.95361272,16.4169913 3.12206807,16.3196615 3.57128906,16.3046875 C4.02051006,16.3196615 4.39859873,16.4693996 4.70556641,16.7539062 C5.01253409,17.0384129 5.21842396,17.2779938 5.32324219,17.4726562 C5.87728142,18.2962281 6.48372066,18.7117513 7.14257812,18.7192383 C7.80143559,18.7267253 8.31054508,18.633139 8.66992188,18.4384766 C8.72981801,18.0641257 8.82340431,17.7496758 8.95068359,17.4951172 C9.07796288,17.2405586 9.23144441,17.0384122 9.41113281,16.8886719 C8.06346982,16.7988277 6.86556514,16.3683307 5.81738281,15.597168 C4.76920049,14.8260053 4.21516957,13.3623155 4.15527344,11.2060547 C4.17024747,10.5771453 4.27880758,10.0081406 4.48095703,9.49902344 C4.68310648,8.98990631 4.97135229,8.53320515 5.34570312,8.12890625 C5.25585893,7.97916592 5.18098988,7.63476832 5.12109375,7.09570312 C5.06119762,6.55663793 5.17350118,5.88281654 5.45800781,5.07421875 C5.45800781,5.02929665 5.71256256,5.04052701 6.22167969,5.10791016 C6.73079682,5.17529331 7.53189558,5.56086888 8.625,6.26464844 C9.55339006,6.01008987 10.5117138,5.8828125 11.5,5.8828125 C12.4882862,5.8828125 13.4466099,6.01008987 14.375,6.26464844 C15.4681044,5.56086888 16.2692032,5.17529331 16.7783203,5.10791016 C17.2874374,5.04052701 17.5419922,5.02929665 17.5419922,5.07421875 C17.8264988,5.88281654 17.9388024,6.55663793 17.8789062,7.09570312 C17.8190101,7.63476832 17.7441411,7.97916592 17.6542969,8.12890625 C18.0286477,8.53320515 18.3168935,8.98990631 18.519043,9.49902344 C18.7211924,10.0081406 18.8297525,10.5771453 18.8447266,11.2060547 C18.7848304,13.3623155 18.2270561,14.8260053 17.1713867,15.597168 C16.1157174,16.3683307 14.9215561,16.7988277 13.5888672,16.8886719 C13.7985037,17.0683603 13.9781894,17.3341454 14.1279297,17.6860352 C14.27767,18.0379249 14.360026,18.4833957 14.375,19.0224609 L14.3525391,22.1669922 C14.3525391,22.3317066 14.4124343,22.4777012 14.5322266,22.6049805 C14.6520188,22.7322598 14.8541652,22.7734377 15.1386719,22.7285156 C17.459647,21.9199178 19.33886,20.5423274 20.7763672,18.5957031 C22.2138744,16.6490788 22.9550779,14.3880337 23,11.8125 C22.9251298,8.54816076 21.8058376,5.83415795 19.6420898,3.67041016 C17.478342,1.50666236 14.7643392,0.387370166 11.5,0.3125 L11.5,0.3125 Z" id="" sketch:type="MSShapeGroup"></path>
            </g>
        </g>
    </g>
</svg>