<?xml version="1.0" encoding="UTF-8" standalone="no"?>
<svg width="24px" height="23px" viewBox="0 0 24 23" version="1.1" xmlns="http://www.w3.org/2000/svg" xmlns:xlink="http://www.w3.org/1999/xlink" xmlns:sketch="http://www.bohemiancoding.com/sketch/ns">
    <!-- Generator: Sketch 3.3.2 (12043) - http://www.bohemiancoding.com/sketch -->
    <title>linkedin copy</title>
    <desc>Created with Sketch.</desc>
    <defs></defs>
    <g id="Welcome" stroke="none" stroke-width="1" fill="none" fill-rule="evenodd" sketch:type="MSPage">
        <g id="Mobile-Portrait" sketch:type="MSArtboardGroup" transform="translate(-181.000000, -293.000000)" fill="#113A52">
            <g id="Group" sketch:type="MSLayerGroup" transform="translate(83.000000, 292.000000)">
                <path d="M110,1 C111.564786,1 113.056552,1.30321962 114.475342,1.90966797 C115.894131,2.51611631 117.116369,3.33218888 118.14209,4.35791016 C119.167811,5.38363143 119.983884,6.60586856 120.590332,8.0246582 C121.19678,9.44344785 121.5,10.9352135 121.5,12.5 C121.5,14.0647865 121.19678,15.5565522 120.590332,16.9753418 C119.983884,18.3941314 119.167811,19.6163686 118.14209,20.6420898 C117.116369,21.6678111 115.894131,22.4838837 114.475342,23.090332 C113.056552,23.6967804 111.564786,24 110,24 C108.435214,24 106.943448,23.6967804 105.524658,23.090332 C104.105869,22.4838837 102.883631,21.6678111 101.85791,20.6420898 C100.832189,19.6163686 100.016116,18.3941314 99.409668,16.9753418 C98.8032196,15.5565522 98.5,14.0647865 98.5,12.5 C98.5,10.9352135 98.8032196,9.44344785 99.409668,8.0246582 C100.016116,6.60586856 100.832189,5.38363143 101.85791,4.35791016 C102.883631,3.33218888 104.105869,2.51611631 105.524658,1.90966797 C106.943448,1.30321962 108.435214,1 110,1 L110,1 Z M105.20459,8.67041016 C105.78109,8.67041016 106.245278,8.50944171 106.597168,8.1875 C106.949058,7.86555829 107.125,7.46500891 107.125,6.98583984 C107.110026,6.49918376 106.93034,6.09863438 106.585938,5.78417969 C106.241535,5.46972499 105.78109,5.3125 105.20459,5.3125 C104.635577,5.3125 104.175132,5.46972499 103.823242,5.78417969 C103.471352,6.09863438 103.29541,6.49918376 103.29541,6.98583984 C103.29541,7.46500891 103.469481,7.86555829 103.817627,8.1875 C104.165773,8.50944171 104.620603,8.67041016 105.182129,8.67041016 L105.20459,8.67041016 Z M106.64209,18.25 L106.64209,10.1079102 L103.76709,10.1079102 L103.76709,18.25 L106.64209,18.25 Z M117.1875,18.25 L117.1875,13.9375 C117.1875,12.6197851 116.88428,11.5716185 116.277832,10.7929688 C115.671384,10.014319 114.855311,9.625 113.82959,9.625 C113.260577,9.625 112.766441,9.78035326 112.347168,10.0910645 C111.927895,10.4017756 111.624675,10.822914 111.4375,11.3544922 L111.336426,10.1079102 L108.483887,10.1079102 L108.5625,12.0170898 L108.5625,18.25 L111.4375,18.25 L111.4375,13.9375 C111.4375,13.3460257 111.562906,12.8780942 111.813721,12.5336914 C112.064536,12.1892886 112.410805,12.0170898 112.852539,12.0170898 C113.324221,12.0170898 113.685464,12.1630845 113.936279,12.4550781 C114.187094,12.7470718 114.3125,13.2412075 114.3125,13.9375 L114.3125,18.25 L117.1875,18.25 Z" id="linkedin-copy" sketch:type="MSShapeGroup"></path>
            </g>
        </g>
    </g>
</svg>