<?xml version="1.0" encoding="UTF-8" standalone="no"?>
<svg width="23px" height="23px" viewBox="0 0 23 23" version="1.1" xmlns="http://www.w3.org/2000/svg" xmlns:xlink="http://www.w3.org/1999/xlink" xmlns:sketch="http://www.bohemiancoding.com/sketch/ns">
    <!-- Generator: Sketch 3.3.2 (12043) - http://www.bohemiancoding.com/sketch -->
    <title>mail</title>
    <desc>Created with Sketch.</desc>
    <defs></defs>
    <g id="Welcome" stroke="none" stroke-width="1" fill="none" fill-rule="evenodd" sketch:type="MSPage">
        <g id="Mobile-Portrait" sketch:type="MSArtboardGroup" transform="translate(-214.000000, -293.000000)" fill="#113A52">
            <g id="Group" sketch:type="MSLayerGroup" transform="translate(83.000000, 292.000000)">
                <path d="M142.5,1 C144.057299,1 145.545322,1.30509135 146.964111,1.9152832 C148.382901,2.52547506 149.605138,3.34341935 150.630859,4.36914062 C151.656581,5.3948619 152.474525,6.61709903 153.084717,8.03588867 C153.694909,9.45467832 154,10.9427005 154,12.5 C154,14.0647865 153.694909,15.5565522 153.084717,16.9753418 C152.474525,18.3941314 151.656581,19.6163686 150.630859,20.6420898 C149.605138,21.6678111 148.382901,22.4838837 146.964111,23.090332 C145.545322,23.6967804 144.057299,24 142.5,24 C140.935214,24 139.443448,23.6967804 138.024658,23.090332 C136.605869,22.4838837 135.383631,21.6678111 134.35791,20.6420898 C133.332189,19.6163686 132.516116,18.3941314 131.909668,16.9753418 C131.30322,15.5565522 131,14.0647865 131,12.5 C131,10.9427005 131.30322,9.45467832 131.909668,8.03588867 C132.516116,6.61709903 133.332189,5.3948619 134.35791,4.36914062 C135.383631,3.34341935 136.605869,2.52547506 138.024658,1.9152832 C139.443448,1.30509135 140.935214,1 142.5,1 L142.5,1 Z M142.5,13.5107422 L149.6875,8.13134766 C149.6875,7.87678909 149.599529,7.66341232 149.423584,7.49121094 C149.247639,7.31900956 149.032391,7.23291016 148.777832,7.23291016 L136.222168,7.23291016 C135.967609,7.23291016 135.752361,7.31900956 135.576416,7.49121094 C135.400471,7.66341232 135.3125,7.87678909 135.3125,8.13134766 L142.5,13.5107422 Z M149.6875,16.8686523 L149.6875,9.99560547 L142.5,15.375 L135.3125,9.99560547 L135.3125,16.8686523 C135.3125,17.1232109 135.400471,17.3365877 135.576416,17.5087891 C135.752361,17.6809904 135.967609,17.7670898 136.222168,17.7670898 L148.777832,17.7670898 C149.032391,17.7670898 149.247639,17.6809904 149.423584,17.5087891 C149.599529,17.3365877 149.6875,17.1232109 149.6875,16.8686523 L149.6875,16.8686523 Z" id="mail" sketch:type="MSShapeGroup"></path>
            </g>
        </g>
    </g>
</svg>