<?xml version="1.0" encoding="UTF-8" standalone="no"?>
<svg width="24px" height="23px" viewBox="0 0 24 23" version="1.1" xmlns="http://www.w3.org/2000/svg" xmlns:xlink="http://www.w3.org/1999/xlink" xmlns:sketch="http://www.bohemiancoding.com/sketch/ns">
    <!-- Generator: Sketch 3.3.2 (12043) - http://www.bohemiancoding.com/sketch -->
    <title>twitter</title>
    <desc>Created with Sketch.</desc>
    <defs></defs>
    <g id="Welcome" stroke="none" stroke-width="1" fill="none" fill-rule="evenodd" sketch:type="MSPage">
        <g id="Mobile-Portrait" sketch:type="MSArtboardGroup" transform="translate(-148.000000, -293.000000)" fill="#113A52">
            <g id="Group" sketch:type="MSLayerGroup" transform="translate(83.000000, 292.000000)">
                <path d="M77,1 C78.5647865,1 80.0565522,1.30321962 81.4753418,1.90966797 C82.8941314,2.51611631 84.1163686,3.33218888 85.1420898,4.35791016 C86.1678111,5.38363143 86.9838837,6.60586856 87.590332,8.0246582 C88.1967804,9.44344785 88.5,10.9352135 88.5,12.5 C88.5,14.0647865 88.1967804,15.5565522 87.590332,16.9753418 C86.9838837,18.3941314 86.1678111,19.6163686 85.1420898,20.6420898 C84.1163686,21.6678111 82.8941314,22.4838837 81.4753418,23.090332 C80.0565522,23.6967804 78.5647865,24 77,24 C75.4352135,24 73.9434478,23.6967804 72.5246582,23.090332 C71.1058686,22.4838837 69.8836314,21.6678111 68.8579102,20.6420898 C67.8321889,19.6163686 67.0161163,18.3941314 66.409668,16.9753418 C65.8032196,15.5565522 65.5,14.0647865 65.5,12.5 C65.5,10.9352135 65.8032196,9.44344785 66.409668,8.0246582 C67.0161163,6.60586856 67.8321889,5.38363143 68.8579102,4.35791016 C69.8836314,3.33218888 71.1058686,2.51611631 72.5246582,1.90966797 C73.9434478,1.30321962 75.4352135,1 77,1 L77,1 Z M83.996582,9.97314453 C84.5805693,9.56135862 85.1233699,8.9998408 85.625,8.28857422 C85.0185517,8.54313278 84.3896517,8.71533158 83.7382812,8.80517578 C84.4270868,8.40087688 84.8950183,7.79443764 85.1420898,6.98583984 C84.5131804,7.36019067 83.8318722,7.62597578 83.0981445,7.78320312 C82.4617481,7.0943976 81.6718797,6.75 80.7285156,6.75 C79.8225866,6.75 79.0551789,7.06819343 78.4262695,7.70458984 C77.7973601,8.34098625 77.4829102,9.11588085 77.4829102,10.0292969 C77.4829102,10.3063165 77.5091143,10.5533843 77.5615234,10.7705078 C76.2213475,10.7031247 74.9654193,10.366214 73.7937012,9.75976562 C72.6219831,9.15331728 71.6243531,8.34473162 70.8007812,7.33398438 C70.5162746,7.86556255 70.3740234,8.41585002 70.3740234,8.98486328 C70.3740234,9.54638953 70.5031725,10.0648576 70.7614746,10.5402832 C71.0197767,11.0157088 71.3697895,11.4031561 71.8115234,11.7026367 C71.2949193,11.7026367 70.8045271,11.5678724 70.340332,11.2983398 L70.340332,11.3320312 C70.340332,12.118168 70.5873999,12.8107066 71.081543,13.409668 C71.5756861,14.0086293 72.2008426,14.3904614 72.9570312,14.5551758 C72.7249337,14.6225589 72.4404314,14.65625 72.1035156,14.65625 C71.9013662,14.65625 71.6954763,14.6375327 71.4858398,14.6000977 C71.6879893,15.2514681 72.0679497,15.7792949 72.6257324,16.1835938 C73.1835152,16.5878926 73.8180303,16.797526 74.5292969,16.8125 C73.249017,17.8082732 71.8976308,18.3061523 70.4750977,18.3061523 C70.3627924,18.3061523 70.1082377,18.2874351 69.7114258,18.25 C71.1863681,19.2083381 72.8522043,19.6875 74.7089844,19.6875 C75.8694719,19.6875 76.9588165,19.5040708 77.9770508,19.137207 C78.995285,18.7703432 79.8656377,18.2780793 80.5881348,17.6604004 C81.3106319,17.0427215 81.9320449,16.3333373 82.4523926,15.5322266 C82.9727402,14.7311158 83.3601875,13.8944542 83.6147461,13.0222168 C83.8693047,12.1499794 83.996582,11.2758833 83.996582,10.3999023 L83.996582,9.97314453 Z" id="twitter" sketch:type="MSShapeGroup"></path>
            </g>
        </g>
    </g>
</svg>